<?xml version="1.0" encoding="UTF-8" standalone="no"?>
<!DOCTYPE svg PUBLIC "-//W3C//DTD SVG 1.1//EN" "http://www.w3.org/Graphics/SVG/1.1/DTD/svg11.dtd">
<svg version="1.1" xmlns="http://www.w3.org/2000/svg" xmlns:xlink="http://www.w3.org/1999/xlink" preserveAspectRatio="xMidYMid meet" viewBox="0 0 640 640" width="640" height="640"><defs><path d="M273.62 158.58C273.39 158.82 272.24 160.04 270.16 162.22C267.7 161.12 266.33 160.5 266.06 160.38C252.65 154.32 240.43 151.58 225.03 151.15C214.71 150.87 207.33 151.58 198.06 153.66C158.65 162.7 130.57 192.88 130.25 226.51C130.25 226.83 130.23 228.42 130.2 231.29C127.52 231.94 126.03 232.3 125.73 232.37C107.66 236.82 92.63 244.91 80.78 256.5C66.22 270.74 58.84 287.53 58.84 306.31C58.84 313.97 59.62 319.36 61.7 326.03C66.49 341.46 77.65 355.98 92.72 366.29C101.07 372.01 113.98 377.74 124.53 380.39C124.81 380.46 126.19 380.8 128.68 381.43C128.68 385.74 128.68 388.14 128.68 388.62C128.73 393.44 129.01 397.18 129.51 399.97C136.01 433.56 166.48 459.05 206.82 464.68C212.45 465.48 228.9 465.48 234.25 464.73C250.62 462.36 265.42 457.06 276.89 449.45C278.42 448.46 279.84 447.6 280.08 447.6C280.26 447.6 281.64 448.6 283.16 449.78C301.93 464.82 327.19 472.44 352.55 470.78C367.76 469.79 380.07 466.53 392.84 460.14C408.46 452.33 421.05 440.7 429.16 426.55C430.36 424.47 430.55 424.33 431.93 424.61C449.95 428.49 463.97 428.64 480.1 425.13C514.73 417.66 541.56 393.06 547.55 363.26C551.93 341.46 544.69 318.28 528.46 301.96C528.26 301.75 527.25 300.75 525.42 298.93C525.95 298.16 526.24 297.74 526.3 297.65C528.23 294.86 532.38 285.31 533.72 280.62C535.61 273.91 536.07 270.17 536.07 262.65C536.02 231.38 513.11 203.28 478.12 191.55C466.92 187.77 457.19 186.3 443.96 186.25C443.28 186.25 439.89 186.25 433.77 186.25C433.14 184.55 432.78 183.6 432.71 183.41C428.33 171.49 418.79 159.05 407.13 149.97C388.09 135.21 360.38 127.69 334.7 130.25C310.64 132.61 288.83 142.73 273.62 158.58Z" id="b70U0lYxe"></path><path d="M327.53 928.66C310.87 939.99 296.47 958.11 290.48 975.7C286.48 987.7 285.41 1009.16 288.48 1021.02C295.41 1047.81 312.73 1068.6 339.26 1081.8C380.97 1102.46 432.55 1093.53 463.87 1060.2C509.99 1011.16 485.73 936.12 417.23 915.46C405.76 911.86 374.98 910.93 362.98 913.73C351.79 916.26 336.06 922.93 327.53 928.66Z" id="brNlh7Hal"></path><path d="M64.7 1197.75C62.03 1207.88 62.16 1226.54 64.83 1235.74C74.29 1268.12 103.08 1290.12 136 1290.25C169.99 1290.25 200.11 1265.19 207.31 1230.94C208.37 1225.74 209.31 1219.21 209.31 1216.28C209.31 1207.08 205.58 1192.69 200.51 1182.42C185.85 1152.7 150.8 1136.58 118.14 1144.44C93.22 1150.44 71.36 1172.29 64.7 1197.75Z" id="c1WMk4qDkC"></path><path d="M-92.04 1398.61C-101.77 1408.34 -104.57 1415.27 -104.57 1430.19C-104.57 1441.12 -104.04 1443.92 -101.1 1450.19C-96.57 1459.78 -89.24 1466.98 -78.85 1471.91C-71.92 1475.11 -68.72 1475.78 -60.85 1475.78C-42.19 1475.91 -27.8 1466.98 -19.67 1450.45C-15.8 1442.59 -15.27 1440.32 -15.27 1430.86C-15.27 1422.06 -15.94 1418.86 -19 1412.07C-28.2 1392.08 -51.12 1381.15 -71.65 1386.88C-81.38 1389.54 -85.38 1391.94 -92.04 1398.61Z" id="a1bXp1lzXv"></path><path d="M-194.93 1582C-210.93 1599.73 -199.2 1629.45 -175.08 1632.25C-162.01 1633.85 -149.89 1627.05 -143.62 1614.92C-138.02 1604.13 -141.09 1587.6 -150.02 1579.2C-156.82 1572.8 -169.48 1569.21 -177.87 1571.34C-184.54 1573.07 -189.74 1576.27 -194.93 1582Z" id="ba0HtitQ8"></path></defs><g><g><g><use xlink:href="#b70U0lYxe" opacity="1" fill="#e5dcdc" fill-opacity="1"></use><g><use xlink:href="#b70U0lYxe" opacity="1" fill-opacity="0" stroke="#000000" stroke-width="1" stroke-opacity="0"></use></g></g><g><use xlink:href="#brNlh7Hal" opacity="1" fill="#e5dcdc" fill-opacity="1"></use><g><use xlink:href="#brNlh7Hal" opacity="1" fill-opacity="0" stroke="#000000" stroke-width="1" stroke-opacity="0"></use></g></g><g><use xlink:href="#c1WMk4qDkC" opacity="1" fill="#e5dcdc" fill-opacity="1"></use><g><use xlink:href="#c1WMk4qDkC" opacity="1" fill-opacity="0" stroke="#000000" stroke-width="1" stroke-opacity="0"></use></g></g><g><use xlink:href="#a1bXp1lzXv" opacity="1" fill="#e5dcdc" fill-opacity="1"></use><g><use xlink:href="#a1bXp1lzXv" opacity="1" fill-opacity="0" stroke="#000000" stroke-width="1" stroke-opacity="0"></use></g></g><g><use xlink:href="#ba0HtitQ8" opacity="1" fill="#e5dcdc" fill-opacity="1"></use><g><use xlink:href="#ba0HtitQ8" opacity="1" fill-opacity="0" stroke="#000000" stroke-width="1" stroke-opacity="0"></use></g></g></g></g></svg>